<?xml version="1.0" standalone="no"?>
<!DOCTYPE svg PUBLIC "-//W3C//DTD SVG 20010904//EN"
 "http://www.w3.org/TR/2001/REC-SVG-20010904/DTD/svg10.dtd">
<svg version="1.0" xmlns="http://www.w3.org/2000/svg"
 width="512.000000pt" height="512.000000pt" viewBox="0 0 512.000000 512.000000"
 preserveAspectRatio="xMidYMid meet">

<g transform="translate(0.000000,512.000000) scale(0.100000,-0.100000)"
fill="#000000" stroke="none">
<path d="M2353 4613 c-13 -2 -23 -8 -23 -13 0 -4 47 -38 105 -76 58 -38 105
-74 105 -81 0 -7 -2 -13 -5 -13 -3 0 -49 27 -102 61 -117 74 -105 53 16 -28
47 -32 88 -61 91 -65 3 -3 27 3 53 14 45 20 47 22 47 60 l0 40 -37 -5 c-32 -4
-52 4 -125 45 -49 27 -88 54 -88 59 0 5 -3 8 -7 8 -5 -1 -18 -4 -30 -6z"/>
<path d="M2445 4590 c3 -5 16 -15 28 -21 22 -12 22 -12 3 10 -19 21 -43 30
-31 11z"/>
<path d="M2375 4445 c17 -14 56 -42 88 -62 l57 -36 0 -103 c0 -56 4 -105 8
-108 10 -6 152 72 196 108 34 27 32 31 -38 106 l-48 52 -48 -21 c-27 -12 -54
-21 -60 -21 -6 0 -43 22 -83 48 -89 60 -111 71 -72 37z"/>
<path d="M3407 4313 c-4 -3 -7 -31 -7 -62 0 -71 -17 -188 -31 -224 -7 -15 -10
-30 -7 -32 3 -3 13 16 22 42 l16 48 -4 -40 c-3 -22 -8 -59 -12 -82 -4 -29 -3
-43 5 -43 6 0 11 -11 11 -25 0 -20 5 -24 23 -22 14 1 22 -3 22 -13 0 -23 -35
-24 -51 -1 -9 12 -21 21 -29 21 -17 0 -29 35 -19 52 5 9 2 8 -10 -1 -9 -8 -15
-19 -13 -26 3 -6 -4 -12 -15 -12 -11 -1 -22 -4 -25 -7 -9 -9 8 -46 21 -46 7 0
21 -9 31 -20 10 -11 23 -19 29 -18 12 3 74 -37 93 -59 11 -14 27 -7 203 94 24
14 24 14 5 -2 -11 -9 -60 -40 -110 -69 l-90 -53 -5 -274 c-4 -216 -7 -256 -12
-189 -5 47 -8 166 -8 266 0 174 -1 181 -22 201 -28 24 -144 103 -153 103 -4 0
-19 9 -34 19 l-26 19 0 -101 0 -101 85 -58 c47 -32 88 -58 93 -58 10 0 9 168
-2 175 -5 3 -12 -3 -14 -12 -4 -14 -5 -13 -6 5 -1 26 -18 30 -24 5 -4 -15 -5
-14 -6 3 0 11 -14 30 -30 42 l-30 22 -4 -28 c-3 -21 -4 -19 -6 11 l-1 38 58
-37 c103 -65 93 14 93 -694 0 -605 -6 -850 -21 -850 -4 0 -10 102 -14 227 -4
125 -9 229 -10 231 -2 1 -47 -23 -100 -55 l-96 -57 0 -54 c0 -53 -1 -54 -17
-34 -23 26 -133 95 -133 83 0 -5 23 -28 51 -50 29 -23 48 -41 43 -41 -5 1 -24
14 -43 30 -35 30 -57 30 -64 2 -3 -10 -6 1 -8 23 -2 33 -3 29 -8 -23 -9 -98
-26 -69 -27 48 -1 58 -5 448 -10 868 -4 419 -10 762 -14 762 -3 0 -62 -37
-131 -81 -145 -96 -228 -141 -242 -132 -6 3 -1 10 11 14 12 5 22 13 22 18 0 6
-7 8 -15 5 -8 -4 -15 -3 -15 0 0 3 21 11 46 17 31 8 44 16 40 25 -3 8 1 15 9
15 25 2 29 4 73 32 23 15 48 25 54 21 6 -4 8 -3 5 2 -3 6 3 15 14 22 10 7 19
8 19 3 0 -5 -5 -12 -10 -14 -6 -3 -5 -4 2 -3 7 2 13 14 13 28 l1 26 -50 -25
c-60 -30 -224 -130 -248 -150 -9 -8 -14 -22 -11 -30 5 -13 1 -15 -20 -11 l-27
5 0 -294 c0 -194 3 -292 10 -288 6 3 10 15 10 26 0 11 5 17 10 14 6 -4 10 -53
10 -115 l0 -108 42 -21 c23 -11 44 -18 47 -16 2 3 7 186 10 407 6 392 16 405
20 25 l1 -148 30 18 c17 9 30 26 30 36 0 10 4 16 9 13 4 -3 34 8 65 25 32 17
60 28 63 25 8 -8 -14 -25 -114 -88 -74 -45 -99 -68 -75 -68 4 0 47 27 96 60
50 33 93 60 98 60 4 0 9 48 10 108 3 188 15 -324 17 -703 1 -350 0 -362 -20
-400 -20 -38 -22 -58 -27 -358 l-4 -319 -52 -32 c-28 -18 -99 -59 -158 -90
-102 -54 -108 -60 -109 -89 l-1 -32 -9 33 c-5 17 -14 32 -19 32 -6 0 -10 6
-10 12 0 7 -19 29 -43 49 -39 34 -41 39 -29 59 7 12 11 24 9 26 -7 7 -195 -87
-242 -121 -22 -15 -32 -25 -22 -21 48 18 47 15 -10 -23 l-63 -40 0 -77 c0 -89
5 -88 -102 -16 -40 27 -122 78 -183 112 -303 174 -353 229 -292 321 28 43 114
100 337 224 96 53 193 110 214 126 22 16 40 28 40 26 5 -14 -12 -277 -18 -291
-8 -15 -6 -17 11 -12 19 6 20 4 10 -41 -6 -27 -13 -50 -16 -53 -4 -3 -8 -18
-10 -35 -1 -16 -10 -35 -19 -42 -10 -7 -13 -13 -9 -13 5 0 1 -7 -7 -16 -9 -8
-16 -21 -16 -28 0 -14 -37 -19 -45 -5 -4 5 -12 9 -18 9 -7 0 1 -9 18 -20 l29
-19 31 23 c57 44 71 48 108 32 19 -7 43 -23 53 -35 l20 -20 97 41 c53 23 97
45 97 49 0 11 -93 79 -184 135 l-76 45 -1 337 c-1 185 -3 344 -4 352 -1 8 -3
335 -4 726 l-1 710 -36 17 -36 18 6 -618 c3 -340 9 -741 12 -890 4 -214 3
-273 -7 -273 -7 0 -53 -26 -103 -59 -50 -32 -109 -66 -131 -75 -22 -10 -47
-22 -55 -27 -8 -5 -28 -16 -45 -25 -16 -9 -40 -26 -52 -38 -27 -27 -202 -120
-205 -109 -1 4 -2 358 -3 786 l0 778 -123 59 c-67 32 -121 56 -118 52 2 -4 45
-27 95 -52 50 -24 91 -48 91 -52 0 -4 -7 -5 -15 -2 -11 5 -13 2 -9 -10 3 -9
10 -16 14 -16 6 0 7 -36 1 -48 0 -1 -16 5 -33 13 l-33 16 25 -20 c14 -11 28
-21 33 -21 4 0 7 -19 7 -42 0 -41 0 -41 -20 -23 -20 18 -21 18 -14 0 6 -14 4
-16 -7 -11 -8 4 -2 -3 14 -16 19 -17 27 -33 27 -56 0 -37 -2 -38 -42 -14 -27
15 -29 21 -27 67 1 28 0 68 -1 90 -2 34 -3 36 -9 15 -4 -14 -14 -25 -22 -24
-12 1 -14 -9 -11 -47 2 -26 -2 -57 -8 -68 -7 -13 -7 -21 -1 -21 6 0 10 -33 9
-79 0 -43 2 -83 6 -89 12 -20 -10 -21 -41 -2 -18 10 -33 29 -35 42 -2 13 -4
-11 -4 -52 0 -41 2 -60 4 -42 4 37 4 37 42 17 25 -13 30 -22 30 -50 0 -30 -3
-34 -21 -32 -31 3 -34 -18 -4 -31 20 -9 25 -19 25 -47 0 -28 -4 -35 -19 -35
-25 0 -37 17 -46 65 l-8 40 -8 -40 c-4 -22 -8 -74 -8 -115 l-1 -75 100 -64
c102 -66 108 -75 94 -126 -3 -11 -36 -38 -74 -60 -38 -22 -64 -42 -59 -46 6
-3 4 -11 -6 -19 -12 -10 -15 -43 -15 -201 0 -104 3 -189 8 -189 4 0 25 12 47
25 77 48 75 52 75 -185 l0 -210 -41 20 c-64 33 -665 392 -679 406 -2 3 4 2 15
-2 13 -4 7 6 -17 29 -60 57 -47 118 36 162 28 15 36 26 36 47 0 26 -2 27 -27
17 -60 -23 -142 -72 -174 -105 -33 -34 -34 -38 -34 -109 1 -59 5 -80 21 -102
22 -29 102 -81 240 -157 81 -44 641 -378 1209 -719 165 -100 320 -191 345
-203 124 -60 302 -58 425 4 28 13 106 57 175 97 69 40 195 110 280 155 85 46
252 138 370 205 118 67 251 141 295 165 90 49 455 256 615 349 58 34 117 72
131 86 27 25 39 67 39 142 0 61 -39 100 -160 163 l-100 51 0 -29 c0 -24 11
-36 68 -75 67 -46 94 -79 85 -105 -4 -10 -8 -10 -19 -1 -8 6 -43 14 -80 17
l-65 5 3 -49 3 -49 38 1 c20 1 37 0 37 -1 0 -4 -351 -205 -398 -230 -19 -9
-35 -15 -36 -13 -2 2 3 138 9 303 l12 300 1 -255 c1 -140 2 -263 2 -273 0 -16
2 -16 25 -1 23 15 25 23 27 103 l2 86 5 -78 c3 -42 11 -78 16 -80 11 -2 12 10
25 288 l9 200 -5 -217 c-2 -119 -1 -224 2 -232 3 -8 12 -12 20 -9 11 4 14 43
16 202 l3 196 2 -188 c3 -172 5 -188 21 -185 15 3 18 20 22 128 l6 125 2 -113
c2 -87 5 -112 15 -108 6 3 20 9 30 12 16 6 17 30 19 278 l3 271 2 -262 c3
-212 6 -263 17 -263 21 0 26 91 26 477 l0 353 -50 -25 c-27 -14 -111 -64 -185
-111 l-135 -85 0 -405 c0 -316 3 -404 13 -404 8 0 7 -4 -3 -10 -10 -6 -11 -10
-2 -10 6 0 12 -5 12 -11 0 -7 -8 -9 -22 -4 -13 3 -29 7 -35 7 -18 2 -19 42 -8
597 5 234 4 296 -6 302 -32 19 -39 -11 -39 -167 0 -84 3 -155 8 -157 4 -3 3
-142 -1 -309 -7 -256 -11 -305 -24 -315 -26 -20 -50 1 -58 54 -5 26 -10 40
-12 31 -3 -10 -7 -18 -10 -18 -12 0 -83 56 -88 70 -4 12 -50 18 -83 11 -2 -1
10 -13 27 -27 17 -14 36 -22 42 -18 8 4 9 3 5 -4 -8 -14 28 -34 48 -26 8 3 23
-3 34 -14 18 -18 18 -19 1 -31 -14 -8 -19 -8 -19 0 0 6 -6 9 -14 6 -28 -11
-74 11 -185 89 -103 72 -126 94 -101 94 6 0 10 107 10 300 0 258 2 301 15 306
13 5 15 60 16 403 1 218 4 386 7 373 7 -22 7 -22 24 -3 9 10 48 38 87 61 39
23 74 46 76 51 3 4 7 50 9 103 4 90 3 96 -18 102 -11 3 -31 16 -44 27 -21 20
-23 20 -57 4 -59 -28 -75 -22 -37 14 19 18 30 34 25 38 -4 3 -9 15 -11 26 -2
11 -12 67 -22 125 -11 58 -19 129 -20 158 0 47 -3 54 -26 62 -29 11 -68 13
-77 3z m-558 -427 c-2 -2 -15 -9 -29 -15 -24 -11 -24 -11 -6 3 16 13 49 24 35
12z m-59 -31 c0 -2 -10 -9 -22 -15 -22 -11 -22 -10 -4 4 21 17 26 19 26 11z
m451 -120 c-1 -44 -4 -81 -6 -83 -2 -2 -5 35 -7 82 -2 49 1 85 6 83 5 -2 8
-39 7 -82z m-401 -74 c0 -11 -180 -124 -187 -118 -2 3 34 28 81 56 47 29 88
56 91 62 8 11 15 12 15 0z m-1480 -272 c0 -5 -4 -7 -10 -4 -5 3 -10 4 -10 1 0
-3 14 -12 30 -21 24 -13 30 -22 30 -49 l0 -34 -35 16 c-31 14 -35 21 -35 52 0
20 3 40 7 43 10 10 23 8 23 -4z m13 -128 c26 -14 27 -16 27 -103 0 -50 -3 -88
-7 -86 -61 29 -63 32 -63 65 0 38 2 39 35 17 14 -9 25 -12 25 -6 0 24 -14 44
-36 53 -19 7 -24 16 -24 45 0 19 3 34 8 32 4 -2 19 -10 35 -17z m-8 -191 c8
-13 -5 -13 -25 0 -13 8 -13 10 2 10 9 0 20 -4 23 -10z m5 -32 c21 -15 30 -30
30 -50 0 -33 -1 -33 -40 -13 -25 13 -30 22 -30 50 0 19 2 35 5 35 3 0 19 -10
35 -22z m-103 -53 c20 -14 37 -81 22 -90 -4 -3 -18 5 -33 16 -19 15 -26 30
-26 55 0 38 6 41 37 19z m107 -58 c13 -9 17 -24 14 -55 -3 -41 -3 -41 -28 -29
-20 10 -26 21 -28 55 -3 45 8 53 42 29z m2770 -82 c-4 -8 -11 -15 -16 -15 -6
0 -5 6 2 15 7 8 14 15 16 15 2 0 1 -7 -2 -15z m-53 -38 c-10 -9 -11 -8 -5 6 3
10 9 15 12 12 3 -3 0 -11 -7 -18z m-32 -20 c-9 -7 -19 -21 -22 -32 -5 -19 -5
-19 -6 1 -1 21 16 44 34 44 5 0 3 -6 -6 -13z m-2714 -147 c-3 -5 -16 -15 -28
-21 -21 -10 -21 -9 2 10 25 23 36 27 26 11z m25 -84 c0 -6 -96 -76 -104 -76
-20 0 0 24 41 50 44 28 63 36 63 26z m2727 -203 c-2 -37 -3 -9 -3 62 0 72 1
102 3 68 2 -34 2 -93 0 -130z m160 75 c-3 -8 -6 -5 -6 6 -1 11 2 17 5 13 3 -3
4 -12 1 -19z m-2897 3 c0 -8 -74 -61 -85 -61 -3 0 -5 6 -5 13 0 6 17 22 38 34
41 24 52 27 52 14z m1820 -202 c107 -62 231 -132 275 -158 137 -79 186 -139
170 -211 -7 -32 -66 -90 -92 -90 -9 0 -28 11 -42 24 -38 34 -541 346 -559 346
-5 0 -12 48 -15 108 -3 59 -9 116 -13 127 -7 17 -3 16 37 -8 24 -15 132 -77
239 -138z m-1805 111 c3 -5 1 -10 -5 -10 -6 0 -28 -12 -50 -26 -37 -25 -67
-30 -52 -9 8 11 82 54 94 55 4 0 10 -4 13 -10z m2016 -147 c13 -17 13 -17 -6
-3 -11 8 -22 16 -24 17 -2 2 0 3 6 3 6 0 17 -8 24 -17z m-421 -131 l42 -38
-46 -50 -45 -49 -1 88 c0 48 2 87 5 87 2 0 23 -17 45 -38z m755 -32 c3 -5 2
-10 -4 -10 -5 0 -13 5 -16 10 -3 6 -2 10 4 10 5 0 13 -4 16 -10z m-560 -130
c54 -33 102 -55 105 -50 3 5 44 -13 90 -40 47 -28 93 -53 102 -56 25 -9 -15
-34 -239 -150 -103 -53 -255 -134 -338 -180 -182 -100 -235 -117 -375 -118
-152 -1 -223 20 -383 117 -50 31 -55 35 -34 40 12 4 72 33 132 66 61 34 115
61 121 61 6 0 42 -20 80 -45 38 -24 75 -45 82 -45 14 0 237 117 307 162 22 14
55 39 73 56 30 28 32 35 32 94 l0 63 48 17 c32 12 52 26 60 43 6 14 17 25 24
25 7 0 58 -27 113 -60z"/>
<path d="M2911 4231 c-18 -14 -21 -20 -11 -26 9 -5 11 -4 6 3 -4 7 -3 12 1 12
5 0 18 7 29 15 10 8 15 14 9 14 -5 1 -21 -8 -34 -18z"/>
<path d="M2140 4137 c0 -16 25 -35 114 -82 34 -18 89 -49 124 -68 34 -20 62
-32 62 -27 0 11 -5 14 -140 93 -52 31 -110 66 -127 78 -26 17 -33 18 -33 6z"/>
<path d="M1252 3929 c-95 -104 -98 -88 28 -156 88 -48 220 -106 226 -100 2 2
-11 35 -29 73 -19 38 -56 115 -82 172 -27 56 -51 102 -54 102 -3 0 -44 -41
-89 -91z m147 -79 c34 -66 59 -120 55 -120 -16 0 -213 102 -225 116 -10 13
-10 17 2 24 9 6 16 5 19 -5 3 -7 18 -23 33 -36 23 -17 31 -19 37 -9 12 20 -6
49 -35 56 -14 3 -25 8 -25 11 0 7 64 83 71 83 3 0 34 -54 68 -120z"/>
<path d="M1295 3920 c-9 -14 26 -59 53 -66 28 -8 28 -18 0 -36 -21 -14 -20
-15 22 -37 23 -12 44 -20 47 -17 5 5 -42 100 -69 139 -20 28 -42 35 -53 17z"/>
<path d="M1170 3796 c0 -3 9 -10 20 -16 11 -6 20 -8 20 -6 0 3 -9 10 -20 16
-11 6 -20 8 -20 6z"/>
<path d="M3593 3567 l-93 -61 0 -198 c0 -138 3 -198 11 -198 16 0 175 76 181
86 3 5 2 104 -1 221 l-6 211 -92 -61z"/>
<path d="M1291 3604 c0 -11 3 -14 6 -6 3 7 2 16 -1 19 -3 4 -6 -2 -5 -13z"/>
<path d="M3200 3434 c0 -166 2 -188 18 -201 32 -25 161 -113 167 -113 7 0 6
107 -1 271 l-7 135 -61 36 c-49 29 -62 33 -64 21 -3 -12 -7 -10 -15 7 -7 13
-18 25 -24 28 -10 3 -13 -38 -13 -184z m67 124 c-3 -8 -6 -5 -6 6 -1 11 2 17
5 13 3 -3 4 -12 1 -19z m55 -46 l-6 -27 -6 30 c-3 17 -11 29 -18 28 -7 -2 -12
4 -12 12 0 14 3 14 24 0 18 -12 22 -21 18 -43z m-35 -19 c-3 -10 -5 -4 -5 12
0 17 2 24 5 18 2 -7 2 -21 0 -30z m60 -145 c-2 -35 -3 -7 -3 62 0 69 1 97 3
63 2 -35 2 -91 0 -125z m-80 130 c-3 -8 -6 -5 -6 6 -1 11 2 17 5 13 3 -3 4
-12 1 -19z"/>
<path d="M2837 3491 c-4 -17 -3 -21 5 -13 5 5 8 16 6 23 -3 8 -7 3 -11 -10z"/>
<path d="M1540 3345 c0 -8 4 -15 10 -15 5 0 7 7 4 15 -4 8 -8 15 -10 15 -2 0
-4 -7 -4 -15z"/>
<path d="M1540 3305 c0 -8 4 -15 10 -15 5 0 7 7 4 15 -4 8 -8 15 -10 15 -2 0
-4 -7 -4 -15z"/>
<path d="M3960 3229 c-17 -13 -18 -17 -5 -10 33 17 51 31 40 31 -5 0 -21 -10
-35 -21z"/>
<path d="M3110 3179 c-29 -19 -44 -36 -42 -47 2 -12 1 -14 -6 -4 -10 15 -45 5
-39 -12 5 -14 126 -97 191 -130 l50 -26 45 26 c53 31 81 53 81 65 0 5 -17 17
-37 28 -21 11 -71 44 -112 75 -41 31 -77 56 -80 55 -3 0 -26 -14 -51 -30z
m-17 -64 c-3 -9 -8 -14 -10 -11 -3 3 -2 9 2 15 9 16 15 13 8 -4z m103 -12
c-10 -10 -19 5 -10 18 6 11 8 11 12 0 2 -7 1 -15 -2 -18z m-73 2 c-3 -9 -8
-14 -10 -11 -3 3 -2 9 2 15 9 16 15 13 8 -4z m117 -14 c0 -5 -7 -12 -16 -15
-14 -5 -15 -4 -4 9 14 17 20 19 20 6z m-77 -16 c-3 -9 -8 -14 -10 -11 -3 3 -2
9 2 15 9 16 15 13 8 -4z m128 -28 c-10 -9 -11 -8 -5 6 3 10 9 15 12 12 3 -3 0
-11 -7 -18z"/>
<path d="M2457 3088 l-38 -20 50 -34 c28 -19 53 -34 56 -34 11 0 85 53 85 61
0 4 -16 1 -35 -7 -43 -18 -89 -18 -104 0 -9 11 -3 14 35 14 56 2 64 7 38 27
-25 19 -41 18 -87 -7z"/>
<path d="M3730 3091 c-54 -28 -58 -29 -68 -19 -6 6 -15 9 -21 7 -5 -2 16 -18
47 -36 l57 -31 0 44 c0 24 0 44 0 43 0 0 -7 -4 -15 -8z"/>
<path d="M2340 3053 c0 -25 8 -32 73 -66 116 -60 105 -33 114 -288 4 -123 9
-215 11 -204 7 33 19 41 97 64 l75 23 0 245 0 245 -96 -51 -95 -52 -61 38
c-33 21 -73 46 -89 56 l-29 19 0 -29z"/>
<path d="M3570 2881 c0 -76 4 -132 10 -136 6 -4 10 42 10 129 0 84 -4 136 -10
136 -6 0 -10 -50 -10 -129z"/>
<path d="M903 2963 c-121 -75 -120 -61 -2 -128 57 -32 153 -89 212 -127 59
-37 112 -68 118 -68 18 0 139 82 139 93 0 11 -354 248 -390 262 -9 3 -43 -11
-77 -32z m129 -41 c8 -9 8 -16 0 -24 -13 -13 -43 -3 -40 13 3 9 -10 20 -41 36
-1 1 0 7 4 12 7 12 57 -12 77 -37z m-76 -19 c59 -50 42 -66 -25 -23 -40 26
-48 36 -40 47 15 18 14 18 65 -24z m147 -28 c18 -13 18 -14 -2 -25 -29 -15
-68 4 -50 26 14 17 29 17 52 -1z m-38 -52 c30 -21 55 -40 55 -44 0 -4 11 -10
25 -13 14 -4 25 -11 25 -16 0 -18 -19 -11 -68 24 -27 18 -63 41 -81 50 -17 9
-29 21 -26 26 9 14 9 14 70 -27z m103 4 c11 -8 11 -12 0 -18 -17 -11 -30 -11
-47 0 -12 8 -12 12 -2 25 13 15 22 14 49 -7z m62 -43 c8 -8 29 -22 47 -29 39
-17 37 -28 -12 -50 -31 -15 -35 -15 -60 1 -30 20 -27 31 5 14 12 -6 28 -9 36
-6 15 6 20 36 5 36 -22 0 -81 32 -76 40 9 15 41 12 55 -6z"/>
<path d="M3611 2928 c1 -40 5 -104 9 -143 6 -60 7 -49 8 73 1 89 -2 142 -8
142 -6 0 -9 -30 -9 -72z"/>
<path d="M3653 2873 c4 -58 7 -123 7 -145 0 -21 5 -38 10 -38 6 0 10 40 10 99
0 117 -9 191 -23 191 -7 0 -8 -37 -4 -107z"/>
<path d="M3700 2817 c0 -80 4 -148 9 -152 9 -5 3 284 -5 294 -2 2 -4 -61 -4
-142z"/>
<path d="M3741 2793 c-1 -96 3 -153 9 -153 12 0 12 194 1 260 -6 33 -9 3 -10
-107z"/>
<path d="M1552 2914 c-21 -14 -22 -22 -22 -144 0 -121 9 -163 25 -122 10 24
45 221 45 255 0 31 -15 34 -48 11z"/>
<path d="M3788 2758 c4 -139 6 -158 18 -146 7 8 -7 288 -15 288 -3 0 -5 -64
-3 -142z"/>
<path d="M770 2791 c0 -66 3 -80 18 -85 27 -10 315 -185 348 -211 16 -13 26
-26 23 -29 -4 -4 -86 41 -184 100 -98 58 -184 108 -192 111 -10 4 -13 -7 -13
-46 0 -36 4 -51 13 -51 15 0 343 -193 366 -216 21 -20 4 -31 -22 -14 -12 7
-76 45 -142 83 -66 38 -140 83 -164 98 -25 16 -48 29 -53 29 -4 0 -8 -20 -8
-44 0 -36 4 -46 21 -51 11 -4 55 -28 97 -54 42 -26 120 -74 172 -106 106 -64
132 -85 111 -85 -8 0 -68 31 -135 69 -66 38 -132 76 -146 83 -14 7 -46 28 -72
46 l-47 32 6 -37 c3 -21 13 -43 22 -50 9 -7 24 -20 34 -29 10 -11 17 -13 17
-5 0 6 11 1 25 -11 14 -13 35 -31 45 -40 11 -10 27 -18 35 -18 8 0 20 -9 27
-20 7 -11 22 -20 33 -20 11 0 28 -8 36 -17 19 -22 59 -54 84 -69 10 -6 23 -19
29 -29 6 -10 21 -29 34 -43 l22 -25 1 34 c2 99 -4 394 -10 463 l-6 79 -65 40
c-244 150 -320 196 -339 206 -21 11 -21 10 -21 -68z m127 -32 c19 -12 32 -23
29 -26 -5 -6 -63 24 -71 37 -10 16 5 12 42 -11z m198 -122 c33 -21 51 -36 41
-33 -29 10 -184 105 -193 119 -7 12 59 -25 152 -86z"/>
<path d="M1956 2778 c-43 -25 -83 -51 -89 -57 -14 -14 -11 -145 3 -149 6 -2 4
-13 -5 -25 -19 -27 -20 -87 -2 -87 8 0 22 9 32 20 10 11 21 18 24 15 6 -7 -48
-55 -61 -55 -4 0 -8 -7 -8 -15 0 -8 7 -15 15 -15 8 0 15 5 15 10 0 6 5 10 10
10 18 0 10 -22 -10 -27 -16 -4 -20 -14 -20 -47 1 -34 3 -38 13 -26 7 9 44 37
84 63 l71 47 7 93 c3 50 5 137 3 192 l-3 100 -79 -47z m50 -39 c-1 -22 -8 -36
-26 -46 -17 -10 -20 -11 -9 -2 21 18 34 59 19 59 -6 0 -8 5 -5 10 12 20 22 10
21 -21z m-55 -12 c-13 -15 -19 -30 -15 -40 3 -10 2 -17 -3 -17 -19 0 -12 46
10 62 31 24 34 22 8 -5z m47 -86 c-7 -12 -18 -21 -24 -21 -6 0 -17 -7 -24 -15
-18 -22 -32 -18 -18 4 7 11 15 18 19 16 3 -3 17 7 29 20 27 29 37 26 18 -4z
m-100 -1 c-12 -19 -28 -27 -28 -14 0 6 30 33 38 34 1 0 -3 -9 -10 -20z m102
-55 c-7 -8 -17 -15 -22 -15 -6 0 -5 7 2 15 7 8 17 15 22 15 6 0 5 -7 -2 -15z
m-58 -37 c-7 -7 -12 -8 -12 -2 0 6 3 14 7 17 3 4 9 5 12 2 2 -3 -1 -11 -7 -17z
m67 -1 c-47 -37 -79 -57 -79 -50 0 11 72 63 79 57 2 -2 2 -5 0 -7z m-95 -22
c-4 -8 -10 -15 -15 -15 -4 0 -6 7 -3 15 4 8 10 15 15 15 4 0 6 -7 3 -15z m81
-35 c-10 -11 -21 -17 -24 -14 -3 3 3 12 13 20 28 20 32 17 11 -6z m-57 -40
c-13 -10 -25 -16 -27 -14 -7 7 33 42 42 37 4 -2 -3 -13 -15 -23z m71 7 c-44
-36 -121 -89 -124 -85 -3 2 23 25 58 50 34 26 64 44 66 42 2 -2 2 -6 0 -7z"/>
<path d="M1690 2770 c0 -6 14 -19 31 -28 46 -25 69 -45 32 -27 -58 28 -69 15
-13 -15 68 -36 70 -36 70 -5 0 20 -11 30 -60 55 -33 17 -60 26 -60 20z"/>
<path d="M3273 2718 c-88 -49 -93 -53 -93 -85 0 -20 5 -33 13 -33 9 0 162 83
173 94 7 6 13 76 7 76 -4 0 -50 -23 -100 -52z"/>
<path d="M1699 2663 c-1 -21 -3 -50 -5 -65 -2 -23 3 -30 32 -44 35 -17 53 -34
35 -34 -5 0 -13 5 -16 10 -3 6 -15 10 -26 10 -16 0 -19 -7 -19 -43 0 -38 4
-45 28 -55 l27 -12 -27 5 c-27 5 -28 3 -28 -33 0 -34 4 -40 52 -69 29 -18 53
-31 54 -30 2 1 4 81 5 177 l3 174 -49 22 c-28 13 -53 23 -57 23 -5 1 -9 -16
-9 -36z m47 -8 c10 -8 15 -14 9 -14 -5 0 -19 6 -29 14 -11 8 -15 15 -10 15 6
0 19 -7 30 -15z m49 -25 c3 -5 2 -10 -4 -10 -5 0 -13 5 -16 10 -3 6 -2 10 4
10 5 0 13 -4 16 -10z m-60 -20 c3 -5 2 -10 -4 -10 -5 0 -13 5 -16 10 -3 6 -2
10 4 10 5 0 13 -4 16 -10z m65 -41 c0 -4 -11 -2 -25 4 -14 7 -25 15 -25 19 0
4 11 2 25 -4 14 -6 25 -15 25 -19z m-70 -69 c0 -5 -4 -10 -10 -10 -5 0 -10 5
-10 10 0 6 5 10 10 10 6 0 10 -4 10 -10z m65 -30 c3 -6 -1 -7 -9 -4 -18 7 -21
14 -7 14 6 0 13 -4 16 -10z m-5 -50 c8 -5 11 -10 5 -10 -5 0 -17 5 -25 10 -8
5 -10 10 -5 10 6 0 17 -5 25 -10z"/>
<path d="M3040 2622 c0 -13 15 -27 64 -60 49 -34 70 -36 45 -5 -9 11 -10 14
-1 9 6 -4 12 -5 12 -2 0 2 -27 18 -60 35 -33 17 -60 27 -60 23z"/>
<path d="M1585 2597 c-56 -23 -65 -32 -65 -64 0 -31 15 -29 41 7 22 29 61 54
43 27 -5 -7 -2 -5 8 5 21 23 28 23 28 -2 0 -11 5 -20 10 -20 6 0 10 16 10 35
0 41 -6 42 -75 12z"/>
<path d="M1234 2060 c0 -52 1 -74 3 -47 2 26 2 68 0 95 -2 26 -3 4 -3 -48z"/>
<path d="M3737 2110 c7 -25 23 -37 23 -17 0 8 -6 20 -14 26 -12 10 -13 8 -9
-9z"/>
<path d="M2023 2055 c-7 -16 -8 -27 -1 -31 14 -9 20 1 16 30 l-3 26 -12 -25z"/>
<path d="M1690 1810 c0 -40 2 -71 5 -69 7 8 9 129 2 136 -4 3 -7 -27 -7 -67z"/>
<path d="M1648 1794 c-2 -25 0 -51 4 -57 4 -7 8 14 8 46 0 68 -7 75 -12 11z"/>
<path d="M1729 1825 c-5 -56 -4 -83 2 -100 7 -17 8 -15 9 10 1 17 4 47 5 68 2
20 0 37 -6 37 -5 0 -10 -7 -10 -15z"/>
<path d="M1777 1752 c3 -31 12 -64 19 -72 12 -12 14 -6 14 45 0 49 -4 63 -19
72 -19 12 -19 10 -14 -45z"/>
<path d="M1840 1711 c0 -44 8 -71 21 -71 5 0 9 25 9 55 0 42 -3 55 -15 55 -11
0 -15 -11 -15 -39z"/>
<path d="M1900 1677 c0 -37 4 -67 9 -67 10 0 8 116 -2 126 -4 4 -7 -23 -7 -59z"/>
<path d="M1940 1640 c0 -35 2 -61 4 -59 8 7 10 108 3 115 -4 4 -7 -21 -7 -56z"/>
<path d="M1983 1615 c0 -38 2 -53 4 -32 2 20 2 52 0 70 -2 17 -4 1 -4 -38z"/>
<path d="M4590 1633 c-47 -47 -381 -235 -346 -195 10 12 22 20 26 17 4 -2 16
5 28 15 12 11 24 20 29 20 4 0 19 11 33 25 15 14 37 28 50 30 13 2 27 10 32
17 4 7 8 9 8 3 0 -5 7 1 15 15 8 14 14 21 15 16 0 -11 30 13 30 25 0 4 -62
-29 -137 -73 -76 -45 -226 -130 -333 -191 -107 -60 -296 -166 -420 -237 -539
-305 -780 -440 -845 -473 -81 -40 -165 -67 -211 -67 -30 0 -33 -3 -31 -27 l2
-28 -75 2 c-96 2 -169 27 -279 97 -98 61 -430 265 -731 448 -213 130 -503 303
-675 403 -55 32 -143 85 -195 116 -84 51 -96 56 -104 41 -5 -9 -15 -21 -23
-25 -38 -23 13 -81 127 -147 189 -109 700 -413 892 -532 117 -72 310 -190 428
-261 118 -72 255 -157 304 -189 135 -87 179 -102 311 -102 135 0 169 11 350
116 72 42 148 86 170 98 22 13 76 45 120 71 44 26 159 92 255 146 96 55 389
223 650 375 261 151 493 285 516 296 90 46 133 114 79 128 -18 4 -25 13 -25
30 0 30 -8 29 -40 -3z"/>
</g>
</svg>
